<svg height="512" viewBox="0 0 58 54" width="512" xmlns="http://www.w3.org/2000/svg"><g id="006---Nuclear-Hazard" fill="none"><path id="Shape" d="m26.2 1.72-25.74 46.98c-1.28 2.3.28 5.3 2.8 5.3h51.48c2.52 0 4.08-3 2.8-5.3l-25.74-46.98c-.5352035-1.05449442-1.6174598-1.71887369-2.8-1.71887369s-2.2647965.66437927-2.8 1.71887369z" fill="#393f4a"/><path id="Shape" d="m29 4.94v45.06h-24.69z" fill="#f3d55b"/><path id="Shape" d="m53.69 50h-24.69v-45.06z" fill="#f0c419"/><g fill="#393f4a"><path id="Shape" d="m32 35.93c-.0009336 1.4556384-1.0466857 2.7005654-2.4803179 2.9527216-1.4336323.2521561-2.8414129-.5612283-3.3389785-1.9291876-.4975655-1.3679593.0586764-2.8957143 1.3192964-3.623534.9285009-.5360705 2.0725043-.5358873 3.0008334.0004806.9283291.536368 1.4998543 1.527379 1.4991666 2.5995194z"/><path id="Shape" d="m34 46.83c-3.1745454 1.4550505-6.8254546 1.4550505-10 0-.2626114-.1129847-.4643083-.3329644-.5541395-.6043693-.0898312-.271405-.0592059-.56828.0841395-.8156307l3.29-5.71c1.3484337.7809076 3.0115663.7809076 4.36 0l3.29 5.71c.1433454.2473507.1739707.5442257.0841395.8156307-.0898312.2714049-.2915281.4913846-.5541395.6043693z"/><path id="Shape" d="m26.82 32.16c-1.3516717.7683768-2.1847245 2.2052019-2.18 3.76h-6.59c-.2834878.0014214-.554257-.117548-.7449539-.3273146s-.2833988-.4906154-.2550461-.7726854c.3187967-3.4874848 2.1451533-6.6616924 5-8.69.2297795-.1686734.5206196-.2312727.7994463-.1720698.2788268.059203.5191374.2345808.6605537.4820698z"/><path id="Shape" d="m41 34.82c.0314024.283696-.059921.5672904-.2509683.7793529-.1910473.2120624-.4636082.3323798-.7490317.3306471h-6.64c-.006617-1.5543783-.8310466-2.9904815-2.17-3.78l3.29-5.7c.1396698-.2491126.3791879-.4266201.6581611-.4877649.2789733-.0611448.5707786-.0000918.8018389.1677649 2.8775403 2.0161973 4.7268819 5.1922404 5.06 8.69z"/></g></g></svg>